<svg xmlns="http://www.w3.org/2000/svg" xmlns:xlink="http://www.w3.org/1999/xlink" width="500" height="500" version="1.2" viewBox="0 0 375 375"><defs><clipPath id="clip1"><path d="M 306 185 L 375 185 L 375 204 L 306 204 Z M 306 185"/></clipPath><clipPath id="clip2"><path d="M 311.007812 185.769531 L 374.976562 185.769531 L 374.976562 203.410156 L 311.007812 203.410156 C 310.730469 203.410156 310.453125 203.382812 310.179688 203.328125 C 309.910156 203.273438 309.644531 203.191406 309.386719 203.085938 C 309.128906 202.980469 308.882812 202.851562 308.652344 202.695312 C 308.421875 202.539062 308.207031 202.363281 308.007812 202.167969 C 307.8125 201.972656 307.636719 201.757812 307.480469 201.527344 C 307.328125 201.292969 307.195312 201.050781 307.089844 200.792969 C 306.984375 200.535156 306.902344 200.269531 306.847656 199.996094 C 306.792969 199.722656 306.765625 199.449219 306.765625 199.171875 L 306.765625 190.015625 C 306.765625 189.738281 306.792969 189.460938 306.847656 189.1875 C 306.902344 188.914062 306.980469 188.648438 307.085938 188.390625 C 307.195312 188.132812 307.324219 187.886719 307.480469 187.65625 C 307.632812 187.425781 307.808594 187.210938 308.007812 187.011719 C 308.203125 186.816406 308.417969 186.640625 308.648438 186.484375 C 308.882812 186.328125 309.125 186.199219 309.382812 186.089844 C 309.640625 185.984375 309.90625 185.90625 310.179688 185.851562 C 310.453125 185.796875 310.730469 185.769531 311.007812 185.769531 Z M 311.007812 185.769531"/></clipPath><linearGradient id="linear0" x1="430.35" x2="430.35" y1="305.93" y2="284.54" gradientTransform="matrix(0.825264,0,0,0.824739,-14.277063,-48.902979)" gradientUnits="userSpaceOnUse"><stop offset="0" style="stop-color:#f3f7fa;stop-opacity:1"/><stop offset=".031" style="stop-color:#f3f7fa;stop-opacity:1"/><stop offset=".063" style="stop-color:#f2f7fa;stop-opacity:1"/><stop offset=".094" style="stop-color:#f1f6fa;stop-opacity:1"/><stop offset=".125" style="stop-color:#f1f6fa;stop-opacity:1"/><stop offset=".156" style="stop-color:#f0f6f9;stop-opacity:1"/><stop offset=".188" style="stop-color:#f0f5f9;stop-opacity:1"/><stop offset=".219" style="stop-color:#eff5f9;stop-opacity:1"/><stop offset=".25" style="stop-color:#eef4f9;stop-opacity:1"/><stop offset=".281" style="stop-color:#eef4f8;stop-opacity:1"/><stop offset=".313" style="stop-color:#edf4f8;stop-opacity:1"/><stop offset=".344" style="stop-color:#ecf3f8;stop-opacity:1"/><stop offset=".375" style="stop-color:#ecf3f8;stop-opacity:1"/><stop offset=".406" style="stop-color:#ebf2f7;stop-opacity:1"/><stop offset=".438" style="stop-color:#ebf2f7;stop-opacity:1"/><stop offset=".469" style="stop-color:#eaf2f7;stop-opacity:1"/><stop offset=".5" style="stop-color:#e9f1f7;stop-opacity:1"/><stop offset=".531" style="stop-color:#e9f1f6;stop-opacity:1"/><stop offset=".563" style="stop-color:#e8f0f6;stop-opacity:1"/><stop offset=".594" style="stop-color:#e7f0f6;stop-opacity:1"/><stop offset=".625" style="stop-color:#e7f0f6;stop-opacity:1"/><stop offset=".656" style="stop-color:#e6eff5;stop-opacity:1"/><stop offset=".688" style="stop-color:#e5eff5;stop-opacity:1"/><stop offset=".719" style="stop-color:#e5eef5;stop-opacity:1"/><stop offset=".75" style="stop-color:#e4eef5;stop-opacity:1"/><stop offset=".781" style="stop-color:#e4eef5;stop-opacity:1"/><stop offset=".813" style="stop-color:#e3edf4;stop-opacity:1"/><stop offset=".844" style="stop-color:#e2edf4;stop-opacity:1"/><stop offset=".875" style="stop-color:#e2ecf4;stop-opacity:1"/><stop offset=".906" style="stop-color:#e1ecf4;stop-opacity:1"/><stop offset=".938" style="stop-color:#e0ebf3;stop-opacity:1"/><stop offset=".969" style="stop-color:#e0ebf3;stop-opacity:1"/><stop offset="1" style="stop-color:#dfebf3;stop-opacity:1"/></linearGradient><clipPath id="clip3"><path d="M 9 154 L 275 154 L 275 329 L 9 329 Z M 9 154"/></clipPath><clipPath id="clip4"><path d="M 43.839844 156.167969 C 43.839844 156.167969 22.621094 141.828125 11.304688 193.207031 C -0.0078125 244.589844 31.113281 331.828125 153.25 328.71875 C 275.390625 325.609375 320.699219 238.222656 215.972656 226.28125"/></clipPath><linearGradient id="linear1" x1="189.06" x2="189.06" y1="461.64" y2="231.26" gradientTransform="matrix(0.825264,0,0,0.824739,-14.277063,-48.902979)" gradientUnits="userSpaceOnUse"><stop offset="0" style="stop-color:#f0f5f9;stop-opacity:1"/><stop offset=".016" style="stop-color:#eff5f9;stop-opacity:1"/><stop offset=".031" style="stop-color:#eff5f9;stop-opacity:1"/><stop offset=".047" style="stop-color:#eef4f9;stop-opacity:1"/><stop offset=".063" style="stop-color:#eef4f8;stop-opacity:1"/><stop offset=".078" style="stop-color:#edf4f8;stop-opacity:1"/><stop offset=".094" style="stop-color:#edf3f8;stop-opacity:1"/><stop offset=".109" style="stop-color:#ecf3f8;stop-opacity:1"/><stop offset=".125" style="stop-color:#ebf3f8;stop-opacity:1"/><stop offset=".141" style="stop-color:#ebf2f7;stop-opacity:1"/><stop offset=".156" style="stop-color:#eaf2f7;stop-opacity:1"/><stop offset=".172" style="stop-color:#eaf1f7;stop-opacity:1"/><stop offset=".188" style="stop-color:#e9f1f7;stop-opacity:1"/><stop offset=".203" style="stop-color:#e9f1f6;stop-opacity:1"/><stop offset=".219" style="stop-color:#e8f0f6;stop-opacity:1"/><stop offset=".234" style="stop-color:#e7f0f6;stop-opacity:1"/><stop offset=".25" style="stop-color:#e7f0f6;stop-opacity:1"/><stop offset=".266" style="stop-color:#e6eff6;stop-opacity:1"/><stop offset=".281" style="stop-color:#e6eff5;stop-opacity:1"/><stop offset=".297" style="stop-color:#e5eef5;stop-opacity:1"/><stop offset=".313" style="stop-color:#e5eef5;stop-opacity:1"/><stop offset=".328" style="stop-color:#e4eef5;stop-opacity:1"/><stop offset=".344" style="stop-color:#e3edf4;stop-opacity:1"/><stop offset=".359" style="stop-color:#e3edf4;stop-opacity:1"/><stop offset=".375" style="stop-color:#e2edf4;stop-opacity:1"/><stop offset=".391" style="stop-color:#e2ecf4;stop-opacity:1"/><stop offset=".406" style="stop-color:#e1ecf4;stop-opacity:1"/><stop offset=".422" style="stop-color:#e1ecf3;stop-opacity:1"/><stop offset=".438" style="stop-color:#e0ebf3;stop-opacity:1"/><stop offset=".453" style="stop-color:#dfebf3;stop-opacity:1"/><stop offset=".469" style="stop-color:#dfeaf3;stop-opacity:1"/><stop offset=".484" style="stop-color:#deeaf2;stop-opacity:1"/><stop offset=".5" style="stop-color:#deeaf2;stop-opacity:1"/><stop offset=".516" style="stop-color:#dde9f2;stop-opacity:1"/><stop offset=".531" style="stop-color:#dde9f2;stop-opacity:1"/><stop offset=".547" style="stop-color:#dce9f2;stop-opacity:1"/><stop offset=".563" style="stop-color:#dbe8f1;stop-opacity:1"/><stop offset=".578" style="stop-color:#dbe8f1;stop-opacity:1"/><stop offset=".594" style="stop-color:#dae8f1;stop-opacity:1"/><stop offset=".609" style="stop-color:#dae7f1;stop-opacity:1"/><stop offset=".625" style="stop-color:#d9e7f0;stop-opacity:1"/><stop offset=".641" style="stop-color:#d8e6f0;stop-opacity:1"/><stop offset=".656" style="stop-color:#d8e6f0;stop-opacity:1"/><stop offset=".672" style="stop-color:#d7e6f0;stop-opacity:1"/><stop offset=".688" style="stop-color:#d7e5f0;stop-opacity:1"/><stop offset=".703" style="stop-color:#d6e5ef;stop-opacity:1"/><stop offset=".719" style="stop-color:#d6e5ef;stop-opacity:1"/><stop offset=".734" style="stop-color:#d5e4ef;stop-opacity:1"/><stop offset=".75" style="stop-color:#d4e4ef;stop-opacity:1"/><stop offset=".766" style="stop-color:#d4e4ef;stop-opacity:1"/><stop offset=".781" style="stop-color:#d3e3ee;stop-opacity:1"/><stop offset=".797" style="stop-color:#d3e3ee;stop-opacity:1"/><stop offset=".813" style="stop-color:#d2e2ee;stop-opacity:1"/><stop offset=".828" style="stop-color:#d2e2ee;stop-opacity:1"/><stop offset=".844" style="stop-color:#d1e2ed;stop-opacity:1"/><stop offset=".859" style="stop-color:#d0e1ed;stop-opacity:1"/><stop offset=".875" style="stop-color:#d0e1ed;stop-opacity:1"/><stop offset=".891" style="stop-color:#cfe1ed;stop-opacity:1"/><stop offset=".906" style="stop-color:#cfe0ed;stop-opacity:1"/><stop offset=".922" style="stop-color:#cee0ec;stop-opacity:1"/><stop offset=".938" style="stop-color:#cedfec;stop-opacity:1"/><stop offset="1" style="stop-color:#cddfec;stop-opacity:1"/></linearGradient><clipPath id="clip5"><path d="M 37 224 L 215 224 L 215 329 L 37 329 Z M 37 224"/></clipPath><clipPath id="clip6"><path d="M 166.859375 276.257812 C 191.113281 267.410156 214.230469 228.960938 214.230469 228.960938 L 37.789062 224.167969 C 37.839844 262.816406 48.824219 289.875 63.511719 308.792969 C 85.441406 321.75 114.835938 329.703125 153.242188 328.71875 C 162.113281 328.503906 170.949219 327.800781 179.742188 326.617188 C 133.125 328.703125 142.597656 285.117188 166.859375 276.257812 Z M 166.859375 276.257812"/></clipPath><linearGradient id="linear2" x1="161.269" x2="170.653" y1="465.57" y2="324.055" gradientTransform="matrix(0.825264,0,0,0.824739,-14.277063,-48.902979)" gradientUnits="userSpaceOnUse"><stop offset="0" style="stop-color:#f4f8fb;stop-opacity:1"/><stop offset=".008" style="stop-color:#f4f8fb;stop-opacity:1"/><stop offset=".016" style="stop-color:#f3f7fa;stop-opacity:1"/><stop offset=".023" style="stop-color:#f2f7fa;stop-opacity:1"/><stop offset=".031" style="stop-color:#f2f7fa;stop-opacity:1"/><stop offset=".039" style="stop-color:#f1f6fa;stop-opacity:1"/><stop offset=".047" style="stop-color:#f1f6fa;stop-opacity:1"/><stop offset=".055" style="stop-color:#f0f6f9;stop-opacity:1"/><stop offset=".063" style="stop-color:#f0f5f9;stop-opacity:1"/><stop offset=".07" style="stop-color:#eff5f9;stop-opacity:1"/><stop offset=".078" style="stop-color:#eff5f9;stop-opacity:1"/><stop offset=".086" style="stop-color:#eef4f9;stop-opacity:1"/><stop offset=".094" style="stop-color:#edf4f8;stop-opacity:1"/><stop offset=".1" style="stop-color:#edf3f8;stop-opacity:1"/><stop offset=".102" style="stop-color:#edf3f8;stop-opacity:1"/><stop offset=".109" style="stop-color:#ecf3f8;stop-opacity:1"/><stop offset=".117" style="stop-color:#ecf3f8;stop-opacity:1"/><stop offset=".125" style="stop-color:#ebf2f7;stop-opacity:1"/><stop offset=".133" style="stop-color:#ebf2f7;stop-opacity:1"/><stop offset=".141" style="stop-color:#eaf2f7;stop-opacity:1"/><stop offset=".148" style="stop-color:#eaf1f7;stop-opacity:1"/><stop offset=".156" style="stop-color:#e9f1f7;stop-opacity:1"/><stop offset=".164" style="stop-color:#e9f1f6;stop-opacity:1"/><stop offset=".172" style="stop-color:#e8f0f6;stop-opacity:1"/><stop offset=".18" style="stop-color:#e7f0f6;stop-opacity:1"/><stop offset=".188" style="stop-color:#e7f0f6;stop-opacity:1"/><stop offset=".195" style="stop-color:#e6eff6;stop-opacity:1"/><stop offset=".203" style="stop-color:#e6eff5;stop-opacity:1"/><stop offset=".211" style="stop-color:#e5eff5;stop-opacity:1"/><stop offset=".219" style="stop-color:#e5eef5;stop-opacity:1"/><stop offset=".227" style="stop-color:#e4eef5;stop-opacity:1"/><stop offset=".234" style="stop-color:#e4edf4;stop-opacity:1"/><stop offset=".242" style="stop-color:#e3edf4;stop-opacity:1"/><stop offset=".25" style="stop-color:#e2edf4;stop-opacity:1"/><stop offset=".258" style="stop-color:#e2ecf4;stop-opacity:1"/><stop offset=".266" style="stop-color:#e1ecf4;stop-opacity:1"/><stop offset=".273" style="stop-color:#e1ecf3;stop-opacity:1"/><stop offset=".281" style="stop-color:#e0ebf3;stop-opacity:1"/><stop offset=".289" style="stop-color:#e0ebf3;stop-opacity:1"/><stop offset=".297" style="stop-color:#dfebf3;stop-opacity:1"/><stop offset=".305" style="stop-color:#dfeaf3;stop-opacity:1"/><stop offset=".313" style="stop-color:#deeaf2;stop-opacity:1"/><stop offset=".32" style="stop-color:#ddeaf2;stop-opacity:1"/><stop offset=".328" style="stop-color:#dde9f2;stop-opacity:1"/><stop offset=".336" style="stop-color:#dce9f2;stop-opacity:1"/><stop offset=".344" style="stop-color:#dce9f2;stop-opacity:1"/><stop offset=".352" style="stop-color:#dbe8f1;stop-opacity:1"/><stop offset=".359" style="stop-color:#dbe8f1;stop-opacity:1"/><stop offset=".367" style="stop-color:#dae7f1;stop-opacity:1"/><stop offset=".375" style="stop-color:#dae7f1;stop-opacity:1"/><stop offset=".383" style="stop-color:#d9e7f0;stop-opacity:1"/><stop offset=".391" style="stop-color:#d8e6f0;stop-opacity:1"/><stop offset=".398" style="stop-color:#d8e6f0;stop-opacity:1"/><stop offset=".406" style="stop-color:#d7e6f0;stop-opacity:1"/><stop offset=".414" style="stop-color:#d7e5f0;stop-opacity:1"/><stop offset=".422" style="stop-color:#d6e5ef;stop-opacity:1"/><stop offset=".43" style="stop-color:#d6e5ef;stop-opacity:1"/><stop offset=".438" style="stop-color:#d5e4ef;stop-opacity:1"/><stop offset=".445" style="stop-color:#d5e4ef;stop-opacity:1"/><stop offset=".453" style="stop-color:#d4e4ef;stop-opacity:1"/><stop offset=".461" style="stop-color:#d3e3ee;stop-opacity:1"/><stop offset=".469" style="stop-color:#d3e3ee;stop-opacity:1"/><stop offset=".477" style="stop-color:#d2e2ee;stop-opacity:1"/><stop offset=".484" style="stop-color:#d2e2ee;stop-opacity:1"/><stop offset=".492" style="stop-color:#d1e2ed;stop-opacity:1"/><stop offset=".5" style="stop-color:#d1e1ed;stop-opacity:1"/><stop offset=".508" style="stop-color:#d0e1ed;stop-opacity:1"/><stop offset=".516" style="stop-color:#d0e1ed;stop-opacity:1"/><stop offset=".523" style="stop-color:#cfe0ed;stop-opacity:1"/><stop offset=".531" style="stop-color:#cee0ec;stop-opacity:1"/><stop offset=".539" style="stop-color:#cee0ec;stop-opacity:1"/><stop offset=".547" style="stop-color:#cddfec;stop-opacity:1"/><stop offset=".563" style="stop-color:#cddfec;stop-opacity:1"/><stop offset=".625" style="stop-color:#cddfec;stop-opacity:1"/><stop offset=".75" style="stop-color:#cddfec;stop-opacity:1"/><stop offset=".9" style="stop-color:#cddfec;stop-opacity:1"/><stop offset="1" style="stop-color:#cddfec;stop-opacity:1"/></linearGradient><clipPath id="clip7"><path d="M 163 95 L 226 95 L 226 186 L 163 186 Z M 163 95"/></clipPath><clipPath id="clip8"><path d="M 163.714844 131.300781 L 163.714844 185.734375 L 185.328125 180.375 L 225.808594 156.589844 L 225.808594 95.558594 C 224.332031 110.074219 211.382812 124.777344 193.679688 113.472656 C 173.742188 100.730469 170.574219 119.335938 170.574219 119.335938 Z M 163.714844 131.300781"/></clipPath><linearGradient id="linear3" x1="300" x2="206.561" y1="275.132" y2="184.568" gradientTransform="matrix(0.825264,0,0,0.824739,-14.277063,-48.902979)" gradientUnits="userSpaceOnUse"><stop offset="0" style="stop-color:#f8fbfc;stop-opacity:1"/><stop offset=".016" style="stop-color:#f8fafc;stop-opacity:1"/><stop offset=".031" style="stop-color:#f7fafc;stop-opacity:1"/><stop offset=".047" style="stop-color:#f6f9fb;stop-opacity:1"/><stop offset=".063" style="stop-color:#f5f8fb;stop-opacity:1"/><stop offset=".078" style="stop-color:#f4f8fb;stop-opacity:1"/><stop offset=".094" style="stop-color:#f3f7fa;stop-opacity:1"/><stop offset=".109" style="stop-color:#f2f6fa;stop-opacity:1"/><stop offset=".125" style="stop-color:#f1f6fa;stop-opacity:1"/><stop offset=".141" style="stop-color:#f0f5f9;stop-opacity:1"/><stop offset=".156" style="stop-color:#eff5f9;stop-opacity:1"/><stop offset=".172" style="stop-color:#eef4f8;stop-opacity:1"/><stop offset=".188" style="stop-color:#edf3f8;stop-opacity:1"/><stop offset=".203" style="stop-color:#ecf3f8;stop-opacity:1"/><stop offset=".219" style="stop-color:#ebf2f7;stop-opacity:1"/><stop offset=".234" style="stop-color:#eaf2f7;stop-opacity:1"/><stop offset=".25" style="stop-color:#e9f1f7;stop-opacity:1"/><stop offset=".266" style="stop-color:#e8f0f6;stop-opacity:1"/><stop offset=".281" style="stop-color:#e7f0f6;stop-opacity:1"/><stop offset=".297" style="stop-color:#e6eff5;stop-opacity:1"/><stop offset=".313" style="stop-color:#e5eef5;stop-opacity:1"/><stop offset=".328" style="stop-color:#e4eef5;stop-opacity:1"/><stop offset=".344" style="stop-color:#e3edf4;stop-opacity:1"/><stop offset=".359" style="stop-color:#e2edf4;stop-opacity:1"/><stop offset=".375" style="stop-color:#e1ecf4;stop-opacity:1"/><stop offset=".391" style="stop-color:#e0ebf3;stop-opacity:1"/><stop offset=".406" style="stop-color:#dfebf3;stop-opacity:1"/><stop offset=".415" style="stop-color:#deeaf2;stop-opacity:1"/><stop offset=".422" style="stop-color:#deeaf2;stop-opacity:1"/><stop offset=".438" style="stop-color:#dde9f2;stop-opacity:1"/><stop offset=".453" style="stop-color:#dce9f2;stop-opacity:1"/><stop offset=".469" style="stop-color:#dbe8f1;stop-opacity:1"/><stop offset=".484" style="stop-color:#dae8f1;stop-opacity:1"/><stop offset=".5" style="stop-color:#d9e7f1;stop-opacity:1"/><stop offset=".516" style="stop-color:#d8e6f0;stop-opacity:1"/><stop offset=".531" style="stop-color:#d7e6f0;stop-opacity:1"/><stop offset=".547" style="stop-color:#d6e5ef;stop-opacity:1"/><stop offset=".563" style="stop-color:#d5e4ef;stop-opacity:1"/><stop offset=".578" style="stop-color:#d4e4ef;stop-opacity:1"/><stop offset=".585" style="stop-color:#d3e3ee;stop-opacity:1"/><stop offset=".594" style="stop-color:#d3e3ee;stop-opacity:1"/><stop offset=".609" style="stop-color:#d2e3ee;stop-opacity:1"/><stop offset=".625" style="stop-color:#d1e2ee;stop-opacity:1"/><stop offset=".641" style="stop-color:#d0e1ed;stop-opacity:1"/><stop offset=".656" style="stop-color:#d0e1ed;stop-opacity:1"/><stop offset=".672" style="stop-color:#cfe0ec;stop-opacity:1"/><stop offset=".688" style="stop-color:#cedfec;stop-opacity:1"/><stop offset=".75" style="stop-color:#cddfec;stop-opacity:1"/><stop offset="1" style="stop-color:#cddfec;stop-opacity:1"/></linearGradient><clipPath id="clip9"><path d="M 37 67 L 90 67 L 90 134 L 37 134 Z M 37 67"/></clipPath><clipPath id="clip10"><path d="M 80.964844 83.617188 C 83.335938 82.609375 86.421875 79.558594 88.203125 77.652344 C 87.578125 73.53125 87 70.023438 86.601562 67.664062 L 80.964844 70.140625 L 58.347656 73.160156 L 41.734375 77.175781 C 39.140625 79.46875 37.605469 81.066406 37.605469 81.066406 L 37.605469 116.96875 C 37.605469 116.96875 47.148438 119.070312 58.238281 120.648438 C 58.402344 123.5 58.734375 127.0625 58.503906 128.226562 C 58.488281 129.1875 58.640625 130.117188 58.964844 131.023438 L 64.949219 132.835938 C 64.949219 132.835938 70.445312 135.226562 71.953125 129.734375 C 72.863281 126.4375 78.804688 123.960938 83.425781 122.421875 C 83.953125 122.175781 84.503906 122.007812 85.078125 121.910156 C 87.363281 121.234375 89.019531 120.871094 89.019531 120.871094 C 89.019531 120.871094 79.234375 122.164062 73.199219 120.042969 C 67.167969 117.925781 65.007812 103.292969 63.910156 94.304688 C 62.523438 83.003906 75.339844 84.011719 75.59375 86.519531 C 75.851562 89.027344 77.246094 103.699219 83.144531 104.175781 C 87.140625 104.507812 87.652344 102.214844 88.1875 100.210938 C 88.722656 98.207031 85.390625 100.457031 83.757812 99.449219 C 82.121094 98.445312 79.226562 84.359375 80.964844 83.617188 Z M 80.964844 83.617188"/></clipPath><linearGradient id="linear4" x1="95.655" x2="91.868" y1="224.582" y2="140.041" gradientTransform="matrix(0.825264,0,0,0.824739,-14.277063,-48.902979)" gradientUnits="userSpaceOnUse"><stop offset="0" style="stop-color:#f8a386;stop-opacity:1"/><stop offset=".033" style="stop-color:#f8a285;stop-opacity:1"/><stop offset=".063" style="stop-color:#f8a285;stop-opacity:1"/><stop offset=".125" style="stop-color:#f8a284;stop-opacity:1"/><stop offset=".188" style="stop-color:#f8a184;stop-opacity:1"/><stop offset=".25" style="stop-color:#f8a083;stop-opacity:1"/><stop offset=".313" style="stop-color:#f8a082;stop-opacity:1"/><stop offset=".375" style="stop-color:#f89f81;stop-opacity:1"/><stop offset=".438" style="stop-color:#f89e80;stop-opacity:1"/><stop offset=".5" style="stop-color:#f89e7f;stop-opacity:1"/><stop offset=".563" style="stop-color:#f89d7e;stop-opacity:1"/><stop offset=".625" style="stop-color:#f89c7d;stop-opacity:1"/><stop offset=".688" style="stop-color:#f89c7d;stop-opacity:1"/><stop offset=".75" style="stop-color:#f89b7c;stop-opacity:1"/><stop offset=".813" style="stop-color:#f89a7b;stop-opacity:1"/><stop offset=".875" style="stop-color:#f89a7a;stop-opacity:1"/><stop offset=".938" style="stop-color:#f89979;stop-opacity:1"/><stop offset=".967" style="stop-color:#f89878;stop-opacity:1"/><stop offset="1" style="stop-color:#f89878;stop-opacity:1"/></linearGradient><clipPath id="clip11"><path d="M 118 190 L 204 190 L 204 258 L 118 258 Z M 118 190"/></clipPath><clipPath id="clip12"><path d="M 174.386719 244.199219 C 152.8125 254.503906 154.746094 220.984375 154.746094 220.984375 L 154.746094 190.320312 C 154.398438 190.957031 154.058594 191.597656 153.730469 192.234375 L 153.730469 192.316406 C 147.699219 202.863281 141.285156 212.546875 136.292969 222.296875 C 127.328125 239.128906 120.753906 252.347656 118.433594 257.132812 L 147.566406 257.132812 C 172.324219 257.132812 190.621094 239.574219 203.15625 220.523438 C 197.054688 228.152344 187.382812 238 174.386719 244.199219 Z M 174.386719 244.199219"/></clipPath><linearGradient id="linear5" x1="266.638" x2="157.082" y1="338.794" y2="328.043" gradientTransform="matrix(0.825264,0,0,0.824739,-14.277063,-48.902979)" gradientUnits="userSpaceOnUse"><stop offset="0" style="stop-color:#552d0a;stop-opacity:1"/><stop offset=".063" style="stop-color:#552d0a;stop-opacity:1"/><stop offset=".072" style="stop-color:#562e0a;stop-opacity:1"/><stop offset=".125" style="stop-color:#562e0a;stop-opacity:1"/><stop offset=".188" style="stop-color:#572e0a;stop-opacity:1"/><stop offset=".25" style="stop-color:#582f0a;stop-opacity:1"/><stop offset=".313" style="stop-color:#592f0a;stop-opacity:1"/><stop offset=".375" style="stop-color:#592f0b;stop-opacity:1"/><stop offset=".438" style="stop-color:#5a300b;stop-opacity:1"/><stop offset=".5" style="stop-color:#5b300b;stop-opacity:1"/><stop offset=".563" style="stop-color:#5c310b;stop-opacity:1"/><stop offset=".625" style="stop-color:#5d310b;stop-opacity:1"/><stop offset=".688" style="stop-color:#5e320b;stop-opacity:1"/><stop offset=".75" style="stop-color:#5e320b;stop-opacity:1"/><stop offset=".813" style="stop-color:#5f330b;stop-opacity:1"/><stop offset=".875" style="stop-color:#60330b;stop-opacity:1"/><stop offset=".928" style="stop-color:#61330b;stop-opacity:1"/><stop offset=".938" style="stop-color:#61340b;stop-opacity:1"/><stop offset="1" style="stop-color:#62340b;stop-opacity:1"/></linearGradient><clipPath id="clip13"><path d="M 37 152 L 114 152 L 114 278 L 37 278 Z M 37 152"/></clipPath><clipPath id="clip14"><path d="M 113.640625 196.042969 L 80.964844 154.699219 C 65.007812 148.449219 47.371094 155.277344 37.632812 168.210938 L 37.632812 219.234375 C 37.628906 221.941406 37.765625 224.640625 38.042969 227.332031 C 38.320312 230.023438 38.734375 232.691406 39.285156 235.339844 C 39.835938 237.992188 40.523438 240.605469 41.34375 243.183594 C 42.164062 245.761719 43.117188 248.289062 44.199219 250.769531 C 45.28125 253.25 46.488281 255.667969 47.820312 258.023438 C 49.152344 260.378906 50.601562 262.660156 52.167969 264.863281 C 53.734375 267.070312 55.410156 269.191406 57.195312 271.226562 C 58.980469 273.257812 60.867188 275.195312 62.851562 277.035156 C 49.441406 261.636719 43.046875 223.085938 70.046875 220.953125 C 99.054688 218.734375 113.640625 196.042969 113.640625 196.042969 Z M 113.640625 196.042969"/></clipPath><linearGradient id="linear6" x1="62.897" x2="155" y1="319.59" y2="319.59" gradientTransform="matrix(0.825264,0,0,0.824739,-14.277063,-48.902979)" gradientUnits="userSpaceOnUse"><stop offset="0" style="stop-color:#f16c52;stop-opacity:1"/><stop offset=".016" style="stop-color:#f16c52;stop-opacity:1"/><stop offset=".031" style="stop-color:#f16b51;stop-opacity:1"/><stop offset=".047" style="stop-color:#f16a51;stop-opacity:1"/><stop offset=".063" style="stop-color:#f16950;stop-opacity:1"/><stop offset=".078" style="stop-color:#f1684f;stop-opacity:1"/><stop offset=".094" style="stop-color:#f1674f;stop-opacity:1"/><stop offset=".109" style="stop-color:#f1664e;stop-opacity:1"/><stop offset=".125" style="stop-color:#f0654d;stop-opacity:1"/><stop offset=".141" style="stop-color:#f0644d;stop-opacity:1"/><stop offset=".156" style="stop-color:#f0634c;stop-opacity:1"/><stop offset=".172" style="stop-color:#f0624c;stop-opacity:1"/><stop offset=".188" style="stop-color:#f0614b;stop-opacity:1"/><stop offset=".203" style="stop-color:#f0604a;stop-opacity:1"/><stop offset=".219" style="stop-color:#f05f4a;stop-opacity:1"/><stop offset=".234" style="stop-color:#f05e49;stop-opacity:1"/><stop offset=".25" style="stop-color:#f05d49;stop-opacity:1"/><stop offset=".266" style="stop-color:#f05c48;stop-opacity:1"/><stop offset=".281" style="stop-color:#f05b47;stop-opacity:1"/><stop offset=".297" style="stop-color:#f05a47;stop-opacity:1"/><stop offset=".313" style="stop-color:#f05a46;stop-opacity:1"/><stop offset=".328" style="stop-color:#f05946;stop-opacity:1"/><stop offset=".344" style="stop-color:#ef5845;stop-opacity:1"/><stop offset=".359" style="stop-color:#ef5744;stop-opacity:1"/><stop offset=".375" style="stop-color:#ef5644;stop-opacity:1"/><stop offset=".391" style="stop-color:#ef5543;stop-opacity:1"/><stop offset=".406" style="stop-color:#ef5442;stop-opacity:1"/><stop offset=".422" style="stop-color:#ef5342;stop-opacity:1"/><stop offset=".438" style="stop-color:#ef5241;stop-opacity:1"/><stop offset=".453" style="stop-color:#ef5141;stop-opacity:1"/><stop offset=".469" style="stop-color:#ef5040;stop-opacity:1"/><stop offset=".484" style="stop-color:#ef4f3f;stop-opacity:1"/><stop offset=".5" style="stop-color:#ef4e3f;stop-opacity:1"/><stop offset=".516" style="stop-color:#ef4d3e;stop-opacity:1"/><stop offset=".531" style="stop-color:#ef4d3e;stop-opacity:1"/><stop offset=".547" style="stop-color:#ee4c3d;stop-opacity:1"/><stop offset=".563" style="stop-color:#ee4b3d;stop-opacity:1"/><stop offset=".578" style="stop-color:#ee4a3c;stop-opacity:1"/><stop offset=".594" style="stop-color:#ee493c;stop-opacity:1"/><stop offset=".609" style="stop-color:#ee483b;stop-opacity:1"/><stop offset=".625" style="stop-color:#ee483a;stop-opacity:1"/><stop offset=".641" style="stop-color:#ee473a;stop-opacity:1"/><stop offset=".656" style="stop-color:#ee4639;stop-opacity:1"/><stop offset=".672" style="stop-color:#ee4539;stop-opacity:1"/><stop offset=".688" style="stop-color:#ee4438;stop-opacity:1"/><stop offset=".703" style="stop-color:#ee4338;stop-opacity:1"/><stop offset=".719" style="stop-color:#ee4337;stop-opacity:1"/><stop offset=".734" style="stop-color:#ed4237;stop-opacity:1"/><stop offset=".75" style="stop-color:#ed4136;stop-opacity:1"/><stop offset=".766" style="stop-color:#ed4035;stop-opacity:1"/><stop offset=".781" style="stop-color:#ed3f35;stop-opacity:1"/><stop offset=".797" style="stop-color:#ed3e34;stop-opacity:1"/><stop offset=".813" style="stop-color:#ed3e34;stop-opacity:1"/><stop offset=".828" style="stop-color:#ed3d33;stop-opacity:1"/><stop offset=".844" style="stop-color:#ed3c33;stop-opacity:1"/><stop offset=".859" style="stop-color:#ed3b32;stop-opacity:1"/><stop offset=".875" style="stop-color:#ed3a32;stop-opacity:1"/><stop offset=".891" style="stop-color:#ed3931;stop-opacity:1"/><stop offset=".906" style="stop-color:#ec3830;stop-opacity:1"/><stop offset=".922" style="stop-color:#ec3830;stop-opacity:1"/><stop offset=".938" style="stop-color:#ec372f;stop-opacity:1"/><stop offset=".953" style="stop-color:#ec362f;stop-opacity:1"/><stop offset=".969" style="stop-color:#ec352e;stop-opacity:1"/><stop offset=".984" style="stop-color:#ec342e;stop-opacity:1"/><stop offset="1" style="stop-color:#ec332d;stop-opacity:1"/></linearGradient><clipPath id="clip15"><path d="M 322.519531 203.410156 L 374.984375 203.410156 L 374.984375 277.042969 L 322.519531 277.042969 Z M 322.519531 203.410156"/></clipPath><linearGradient id="linear7" x1="439.89" x2="439.89" y1="395.21" y2="305.93" gradientTransform="matrix(0.825264,0,0,0.824739,-14.277063,-48.902979)" gradientUnits="userSpaceOnUse"><stop offset="0" style="stop-color:#f3f7fa;stop-opacity:1"/><stop offset=".031" style="stop-color:#f3f7fa;stop-opacity:1"/><stop offset=".063" style="stop-color:#f2f7fa;stop-opacity:1"/><stop offset=".094" style="stop-color:#f1f6fa;stop-opacity:1"/><stop offset=".125" style="stop-color:#f1f6fa;stop-opacity:1"/><stop offset=".156" style="stop-color:#f0f6f9;stop-opacity:1"/><stop offset=".188" style="stop-color:#f0f5f9;stop-opacity:1"/><stop offset=".219" style="stop-color:#eff5f9;stop-opacity:1"/><stop offset=".25" style="stop-color:#eef4f9;stop-opacity:1"/><stop offset=".281" style="stop-color:#eef4f8;stop-opacity:1"/><stop offset=".313" style="stop-color:#edf4f8;stop-opacity:1"/><stop offset=".344" style="stop-color:#ecf3f8;stop-opacity:1"/><stop offset=".375" style="stop-color:#ecf3f8;stop-opacity:1"/><stop offset=".406" style="stop-color:#ebf2f7;stop-opacity:1"/><stop offset=".438" style="stop-color:#ebf2f7;stop-opacity:1"/><stop offset=".469" style="stop-color:#eaf2f7;stop-opacity:1"/><stop offset=".5" style="stop-color:#e9f1f7;stop-opacity:1"/><stop offset=".531" style="stop-color:#e9f1f6;stop-opacity:1"/><stop offset=".563" style="stop-color:#e8f0f6;stop-opacity:1"/><stop offset=".594" style="stop-color:#e7f0f6;stop-opacity:1"/><stop offset=".625" style="stop-color:#e7f0f6;stop-opacity:1"/><stop offset=".656" style="stop-color:#e6eff5;stop-opacity:1"/><stop offset=".688" style="stop-color:#e5eff5;stop-opacity:1"/><stop offset=".719" style="stop-color:#e5eef5;stop-opacity:1"/><stop offset=".75" style="stop-color:#e4eef5;stop-opacity:1"/><stop offset=".781" style="stop-color:#e4eef5;stop-opacity:1"/><stop offset=".813" style="stop-color:#e3edf4;stop-opacity:1"/><stop offset=".844" style="stop-color:#e2edf4;stop-opacity:1"/><stop offset=".875" style="stop-color:#e2ecf4;stop-opacity:1"/><stop offset=".906" style="stop-color:#e1ecf4;stop-opacity:1"/><stop offset=".938" style="stop-color:#e0ebf3;stop-opacity:1"/><stop offset=".969" style="stop-color:#e0ebf3;stop-opacity:1"/><stop offset="1" style="stop-color:#dfebf3;stop-opacity:1"/></linearGradient><clipPath id="clip16"><path d="M 322 277 L 345 277 L 345 329 L 322 329 Z M 322 277"/></clipPath><clipPath id="clip17"><path d="M 329.511719 328.828125 L 325.921875 328.828125 C 325.46875 328.828125 325.035156 328.742188 324.617188 328.566406 C 324.203125 328.394531 323.832031 328.148438 323.515625 327.828125 C 323.195312 327.511719 322.949219 327.140625 322.777344 326.722656 C 322.605469 326.308594 322.519531 325.871094 322.519531 325.421875 L 322.519531 277.035156 L 344.464844 277.035156 L 337.113281 322.328125 C 337.042969 322.777344 336.933594 323.21875 336.78125 323.648438 C 336.632812 324.078125 336.449219 324.488281 336.226562 324.886719 C 336.003906 325.28125 335.75 325.65625 335.460938 326.007812 C 335.175781 326.359375 334.855469 326.683594 334.511719 326.980469 C 334.164062 327.273438 333.796875 327.539062 333.40625 327.769531 C 333.011719 328 332.601562 328.191406 332.175781 328.351562 C 331.75 328.507812 331.3125 328.625 330.863281 328.707031 C 330.417969 328.785156 329.964844 328.828125 329.511719 328.828125 Z M 329.511719 328.828125"/></clipPath><linearGradient id="linear8" x1="421.4" x2="421.4" y1="458" y2="395.2" gradientTransform="matrix(0.825264,0,0,0.824739,-14.277063,-48.902979)" gradientUnits="userSpaceOnUse"><stop offset="0" style="stop-color:#f3f7fa;stop-opacity:1"/><stop offset=".031" style="stop-color:#f3f7fa;stop-opacity:1"/><stop offset=".063" style="stop-color:#f2f7fa;stop-opacity:1"/><stop offset=".094" style="stop-color:#f1f6fa;stop-opacity:1"/><stop offset=".125" style="stop-color:#f1f6fa;stop-opacity:1"/><stop offset=".156" style="stop-color:#f0f6f9;stop-opacity:1"/><stop offset=".188" style="stop-color:#f0f5f9;stop-opacity:1"/><stop offset=".219" style="stop-color:#eff5f9;stop-opacity:1"/><stop offset=".25" style="stop-color:#eef4f9;stop-opacity:1"/><stop offset=".281" style="stop-color:#eef4f8;stop-opacity:1"/><stop offset=".313" style="stop-color:#edf4f8;stop-opacity:1"/><stop offset=".344" style="stop-color:#ecf3f8;stop-opacity:1"/><stop offset=".375" style="stop-color:#ecf3f8;stop-opacity:1"/><stop offset=".406" style="stop-color:#ebf2f7;stop-opacity:1"/><stop offset=".438" style="stop-color:#ebf2f7;stop-opacity:1"/><stop offset=".469" style="stop-color:#eaf2f7;stop-opacity:1"/><stop offset=".5" style="stop-color:#e9f1f7;stop-opacity:1"/><stop offset=".531" style="stop-color:#e9f1f6;stop-opacity:1"/><stop offset=".563" style="stop-color:#e8f0f6;stop-opacity:1"/><stop offset=".594" style="stop-color:#e7f0f6;stop-opacity:1"/><stop offset=".625" style="stop-color:#e7f0f6;stop-opacity:1"/><stop offset=".656" style="stop-color:#e6eff5;stop-opacity:1"/><stop offset=".688" style="stop-color:#e5eff5;stop-opacity:1"/><stop offset=".719" style="stop-color:#e5eef5;stop-opacity:1"/><stop offset=".75" style="stop-color:#e4eef5;stop-opacity:1"/><stop offset=".781" style="stop-color:#e4eef5;stop-opacity:1"/><stop offset=".813" style="stop-color:#e3edf4;stop-opacity:1"/><stop offset=".844" style="stop-color:#e2edf4;stop-opacity:1"/><stop offset=".875" style="stop-color:#e2ecf4;stop-opacity:1"/><stop offset=".906" style="stop-color:#e1ecf4;stop-opacity:1"/><stop offset=".938" style="stop-color:#e0ebf3;stop-opacity:1"/><stop offset=".969" style="stop-color:#e0ebf3;stop-opacity:1"/><stop offset="1" style="stop-color:#dfebf3;stop-opacity:1"/></linearGradient><clipPath id="clip18"><path d="M 333 214 L 375 214 L 375 233 L 333 233 Z M 333 214"/></clipPath><clipPath id="clip19"><path d="M 336.277344 214.890625 L 374.976562 214.890625 L 374.976562 232.710938 L 336.277344 232.710938 C 335.910156 232.710938 335.554688 232.640625 335.210938 232.5 C 334.871094 232.359375 334.566406 232.15625 334.304688 231.894531 C 334.042969 231.632812 333.84375 231.332031 333.703125 230.992188 C 333.558594 230.648438 333.488281 230.292969 333.488281 229.925781 L 333.488281 217.675781 C 333.488281 217.308594 333.558594 216.953125 333.703125 216.609375 C 333.84375 216.269531 334.042969 215.96875 334.304688 215.707031 C 334.566406 215.445312 334.871094 215.242188 335.210938 215.101562 C 335.554688 214.960938 335.910156 214.890625 336.277344 214.890625 Z M 336.277344 214.890625"/></clipPath><linearGradient id="linear9" x1="446.54" x2="446.54" y1="341.46" y2="319.85" gradientTransform="matrix(0.825264,0,0,0.824739,-14.277063,-48.902979)" gradientUnits="userSpaceOnUse"><stop offset="0" style="stop-color:#deeaf2;stop-opacity:1"/><stop offset=".031" style="stop-color:#ddeaf2;stop-opacity:1"/><stop offset=".063" style="stop-color:#dde9f2;stop-opacity:1"/><stop offset=".094" style="stop-color:#dce9f1;stop-opacity:1"/><stop offset=".125" style="stop-color:#dbe8f1;stop-opacity:1"/><stop offset=".156" style="stop-color:#dae7f1;stop-opacity:1"/><stop offset=".188" style="stop-color:#d9e7f0;stop-opacity:1"/><stop offset=".219" style="stop-color:#d8e6f0;stop-opacity:1"/><stop offset=".25" style="stop-color:#d7e6f0;stop-opacity:1"/><stop offset=".281" style="stop-color:#d6e5ef;stop-opacity:1"/><stop offset=".313" style="stop-color:#d6e5ef;stop-opacity:1"/><stop offset=".344" style="stop-color:#d5e4ef;stop-opacity:1"/><stop offset=".375" style="stop-color:#d4e3ee;stop-opacity:1"/><stop offset=".406" style="stop-color:#d3e3ee;stop-opacity:1"/><stop offset=".438" style="stop-color:#d2e2ee;stop-opacity:1"/><stop offset=".469" style="stop-color:#d1e2ed;stop-opacity:1"/><stop offset=".5" style="stop-color:#d0e1ed;stop-opacity:1"/><stop offset=".531" style="stop-color:#cfe1ed;stop-opacity:1"/><stop offset=".563" style="stop-color:#cfe0ec;stop-opacity:1"/><stop offset=".594" style="stop-color:#cee0ec;stop-opacity:1"/><stop offset=".625" style="stop-color:#cddfec;stop-opacity:1"/><stop offset=".75" style="stop-color:#cddfec;stop-opacity:1"/><stop offset="1" style="stop-color:#cddfec;stop-opacity:1"/></linearGradient><clipPath id="clip20"><path d="M 333 241 L 375 241 L 375 260 L 333 260 Z M 333 241"/></clipPath><clipPath id="clip21"><path d="M 336.277344 241.5625 L 374.976562 241.5625 L 374.976562 259.382812 L 336.277344 259.382812 C 335.910156 259.382812 335.554688 259.3125 335.210938 259.171875 C 334.871094 259.03125 334.566406 258.828125 334.304688 258.566406 C 334.042969 258.308594 333.84375 258.003906 333.703125 257.664062 C 333.558594 257.320312 333.488281 256.964844 333.488281 256.597656 L 333.488281 244.347656 C 333.488281 243.980469 333.558594 243.625 333.703125 243.28125 C 333.84375 242.941406 334.042969 242.640625 334.304688 242.378906 C 334.566406 242.117188 334.871094 241.914062 335.210938 241.773438 C 335.554688 241.632812 335.910156 241.5625 336.277344 241.5625 Z M 336.277344 241.5625"/></clipPath><linearGradient id="linear10" x1="446.54" x2="446.54" y1="373.8" y2="352.19" gradientTransform="matrix(0.825264,0,0,0.824739,-14.277063,-48.902979)" gradientUnits="userSpaceOnUse"><stop offset="0" style="stop-color:#deeaf2;stop-opacity:1"/><stop offset=".031" style="stop-color:#ddeaf2;stop-opacity:1"/><stop offset=".063" style="stop-color:#dde9f2;stop-opacity:1"/><stop offset=".094" style="stop-color:#dce8f1;stop-opacity:1"/><stop offset=".125" style="stop-color:#dbe8f1;stop-opacity:1"/><stop offset=".156" style="stop-color:#dae7f1;stop-opacity:1"/><stop offset=".188" style="stop-color:#d9e7f0;stop-opacity:1"/><stop offset=".219" style="stop-color:#d8e6f0;stop-opacity:1"/><stop offset=".25" style="stop-color:#d7e6f0;stop-opacity:1"/><stop offset=".281" style="stop-color:#d6e5ef;stop-opacity:1"/><stop offset=".313" style="stop-color:#d6e5ef;stop-opacity:1"/><stop offset=".344" style="stop-color:#d5e4ef;stop-opacity:1"/><stop offset=".375" style="stop-color:#d4e3ee;stop-opacity:1"/><stop offset=".406" style="stop-color:#d3e3ee;stop-opacity:1"/><stop offset=".438" style="stop-color:#d2e2ee;stop-opacity:1"/><stop offset=".469" style="stop-color:#d1e2ed;stop-opacity:1"/><stop offset=".5" style="stop-color:#d0e1ed;stop-opacity:1"/><stop offset=".531" style="stop-color:#cfe1ed;stop-opacity:1"/><stop offset=".563" style="stop-color:#cfe0ec;stop-opacity:1"/><stop offset=".594" style="stop-color:#cee0ec;stop-opacity:1"/><stop offset=".625" style="stop-color:#cddfec;stop-opacity:1"/><stop offset=".75" style="stop-color:#cddfec;stop-opacity:1"/><stop offset="1" style="stop-color:#cddfec;stop-opacity:1"/></linearGradient></defs><g id="surface1"><g clip-path="url(#clip1)" clip-rule="nonzero"><g clip-path="url(#clip2)" clip-rule="nonzero"><path style="stroke:none;fill-rule:nonzero;fill:url(#linear0)" d="M 306.765625 185.769531 L 306.765625 203.410156 L 374.976562 203.410156 L 374.976562 185.769531 Z M 306.765625 185.769531"/></g></g><g clip-path="url(#clip3)" clip-rule="nonzero"><g clip-path="url(#clip4)" clip-rule="nonzero"><path style="stroke:none;fill-rule:nonzero;fill:url(#linear1)" d="M 0 141.828125 L 0 331.828125 L 320.699219 331.828125 L 320.699219 141.828125 Z M 0 141.828125"/></g></g><g clip-path="url(#clip5)" clip-rule="nonzero"><g clip-path="url(#clip6)" clip-rule="nonzero"><path style="stroke:none;fill-rule:nonzero;fill:url(#linear2)" d="M 37.789062 224.167969 L 37.789062 329.703125 L 214.230469 329.703125 L 214.230469 224.167969 Z M 37.789062 224.167969"/></g></g><path style="stroke:none;fill-rule:nonzero;fill:#dfecf4;fill-opacity:1" d="M 220.683594 84.382812 C 208.238281 89.875 192.054688 93.800781 171.003906 94.542969 C 170.519531 94.5625 170.046875 94.628906 169.574219 94.738281 C 169.105469 94.851562 168.652344 95.003906 168.210938 95.199219 C 167.769531 95.398438 167.351562 95.632812 166.957031 95.910156 C 166.5625 96.1875 166.195312 96.496094 165.859375 96.84375 C 165.523438 97.191406 165.226562 97.5625 164.960938 97.96875 C 164.695312 98.371094 164.472656 98.792969 164.289062 99.242188 C 164.105469 99.6875 163.964844 100.144531 163.867188 100.617188 C 163.773438 101.089844 163.722656 101.566406 163.714844 102.050781 L 163.714844 193.09375 L 225.808594 156.605469 L 225.808594 87.746094 C 225.808594 87.445312 225.773438 87.144531 225.699219 86.847656 C 225.628906 86.550781 225.519531 86.269531 225.375 86.003906 C 225.230469 85.734375 225.054688 85.488281 224.851562 85.261719 C 224.644531 85.039062 224.414062 84.84375 224.160156 84.675781 C 223.90625 84.507812 223.632812 84.375 223.347656 84.277344 C 223.058594 84.175781 222.761719 84.113281 222.460938 84.089844 C 222.15625 84.0625 221.855469 84.074219 221.554688 84.125 C 221.253906 84.175781 220.960938 84.261719 220.683594 84.382812 Z M 220.683594 84.382812"/><g clip-path="url(#clip7)" clip-rule="nonzero"><g clip-path="url(#clip8)" clip-rule="nonzero"><path style="stroke:none;fill-rule:nonzero;fill:url(#linear3)" d="M 163.714844 95.558594 L 163.714844 185.734375 L 225.808594 185.734375 L 225.808594 95.558594 Z M 163.714844 95.558594"/></g></g><path style="stroke:none;fill-rule:nonzero;fill:#071c2a;fill-opacity:1" d="M 306.765625 104.441406 L 334.660156 102.355469 L 344.464844 82.261719 L 344.464844 115.039062 L 291.078125 128.070312"/><path style="stroke:none;fill-rule:nonzero;fill:#f16c52;fill-opacity:1" d="M 111.445312 158.59375 C 111.445312 158.59375 119.414062 46.097656 55.722656 46.148438 L 55.722656 58.378906 L 77.617188 147.691406 Z M 111.445312 158.59375"/><path style="stroke:none;fill-rule:nonzero;fill:#f7dfdf;fill-opacity:1" d="M 94.492188 131.1875 L 95.078125 120.910156 C 95.09375 120.660156 95.082031 120.410156 95.046875 120.160156 C 95.007812 119.910156 94.949219 119.667969 94.859375 119.429688 C 94.773438 119.195312 94.664062 118.96875 94.53125 118.753906 C 94.402344 118.539062 94.246094 118.339844 94.074219 118.160156 C 93.902344 117.976562 93.710938 117.8125 93.503906 117.667969 C 93.296875 117.523438 93.078125 117.402344 92.847656 117.300781 C 92.617188 117.203125 92.375 117.128906 92.128906 117.078125 C 91.882812 117.027344 91.632812 117 91.382812 117 L 74.539062 117 L 76.503906 135.078125 L 77.328125 135.078125 L 76.503906 135.5 C 76.503906 135.5 98.667969 197.28125 146.460938 205.601562 L 154.761719 189.992188 L 96.597656 136.382812 C 95.875 135.71875 95.328125 134.933594 94.957031 134.023438 C 94.589844 133.113281 94.433594 132.167969 94.492188 131.1875 Z M 94.492188 131.1875"/><path style="stroke:none;fill-rule:nonzero;fill:#56312a;fill-opacity:1" d="M 146.441406 257.132812 C 240.597656 257.132812 224.84375 175.152344 224.84375 175.152344 C 188.027344 170.179688 146.441406 257.132812 146.441406 257.132812 Z M 146.441406 257.132812"/><path style="stroke:none;fill-rule:nonzero;fill:#56312a;fill-opacity:1" d="M 182.960938 150.683594 L 153.25 205.585938 L 306.75 124.203125 L 306.75 104.40625 C 306.75 104.40625 216.589844 106.476562 182.960938 150.683594 Z M 182.960938 150.683594"/><path style="stroke:none;fill-rule:nonzero;fill:#f9aa8f;fill-opacity:1" d="M 92.222656 117 C 92.222656 98.914062 86.035156 64.40625 86.035156 64.40625 C 65.972656 51.402344 37.632812 81.101562 37.632812 81.101562 L 37.632812 117 C 37.632812 117 47.171875 119.105469 58.261719 120.679688 C 58.429688 123.535156 58.757812 127.097656 58.527344 128.257812 C 58.132812 130.304688 62.652344 140.96875 62.652344 140.96875 L 79.644531 142.699219 L 79.5625 128.382812 C 79.5625 127.996094 79.59375 127.609375 79.660156 127.226562 C 79.730469 126.84375 79.828125 126.46875 79.964844 126.105469 C 80.097656 125.742188 80.261719 125.390625 80.457031 125.054688 C 80.65625 124.71875 80.878906 124.40625 81.132812 124.109375 C 81.382812 123.8125 81.660156 123.542969 81.960938 123.296875 C 82.261719 123.050781 82.582031 122.832031 82.921875 122.644531 C 83.261719 122.453125 83.613281 122.296875 83.980469 122.171875 C 84.347656 122.042969 84.726562 121.953125 85.109375 121.890625 C 89.449219 121.207031 92.222656 119.714844 92.222656 117 Z M 92.222656 117"/><g clip-path="url(#clip9)" clip-rule="nonzero"><g clip-path="url(#clip10)" clip-rule="nonzero"><path style="stroke:none;fill-rule:nonzero;fill:url(#linear4)" d="M 37.605469 67.664062 L 37.605469 135.226562 L 89.019531 135.226562 L 89.019531 67.664062 Z M 37.605469 67.664062"/></g></g><path style="stroke:none;fill-rule:nonzero;fill:#ffe8e6;fill-opacity:1" d="M 152.105469 208.414062 L 150.957031 206.394531 L 147.699219 197.265625 L 147.699219 197.199219 C 117.082031 166.402344 94.953125 148.382812 78.976562 138.3125 C 78.28125 137.875 77.652344 137.355469 77.089844 136.757812 C 76.527344 136.15625 76.046875 135.496094 75.652344 134.773438 C 75.261719 134.054688 74.964844 133.292969 74.765625 132.496094 C 74.566406 131.699219 74.472656 130.886719 74.480469 130.066406 L 74.578125 121.726562 C 74.578125 121.417969 74.546875 121.113281 74.488281 120.8125 C 74.425781 120.507812 74.335938 120.214844 74.21875 119.929688 C 74.101562 119.644531 73.957031 119.375 73.785156 119.121094 C 73.613281 118.863281 73.417969 118.625 73.199219 118.410156 C 72.980469 118.191406 72.742188 117.996094 72.484375 117.824219 C 72.230469 117.652344 71.957031 117.507812 71.671875 117.390625 C 71.386719 117.273438 71.09375 117.183594 70.792969 117.125 C 70.488281 117.066406 70.183594 117.035156 69.875 117.035156 L 43.65625 117.035156 L 43.65625 127.980469 C 42.886719 128.324219 42.171875 128.753906 41.507812 129.269531 C 40.84375 129.785156 40.246094 130.375 39.722656 131.03125 C 39.199219 131.691406 38.761719 132.402344 38.40625 133.167969 C 38.054688 133.929688 37.796875 134.722656 37.632812 135.550781 C 37.632812 135.550781 36.371094 171.1875 47.617188 204.464844 C 57.414062 233.628906 77.328125 261 117.5 261 L 117.574219 260.917969 L 141.699219 244.769531 L 157.707031 234.046875 Z M 152.105469 208.414062"/><path style="stroke:none;fill-rule:nonzero;fill:#633a30;fill-opacity:1" d="M 304.078125 181.675781 L 232.535156 174.253906 C 232.007812 174.1875 231.476562 174.160156 230.945312 174.183594 C 230.414062 174.203125 229.886719 174.273438 229.367188 174.382812 C 228.847656 174.496094 228.339844 174.648438 227.847656 174.847656 C 227.351562 175.046875 226.878906 175.285156 226.425781 175.566406 C 225.972656 175.847656 225.550781 176.160156 225.152344 176.515625 C 224.753906 176.867188 224.386719 177.25 224.054688 177.667969 C 223.722656 178.082031 223.425781 178.523438 223.171875 178.988281 C 222.914062 179.453125 222.699219 179.9375 222.523438 180.441406 C 215.492188 200.761719 191.988281 257.140625 147.566406 257.140625 L 117.476562 257.140625 C 117.460938 257.757812 117.488281 258.375 117.558594 258.988281 C 118.128906 257.695312 125.480469 242.617188 136.292969 222.304688 C 141.285156 212.554688 147.699219 202.875 153.730469 192.324219 L 153.730469 192.242188 C 165.789062 169.109375 183.398438 146.609375 197.839844 136.367188 L 198.152344 136.054688 C 201.277344 133.863281 204.675781 132.25 208.347656 131.210938 C 230.777344 125.890625 245.019531 136.242188 263.40625 142.699219 C 276.414062 147.269531 304.078125 160.886719 304.078125 160.886719 Z M 304.078125 181.675781"/><g clip-path="url(#clip11)" clip-rule="nonzero"><g clip-path="url(#clip12)" clip-rule="nonzero"><path style="stroke:none;fill-rule:nonzero;fill:url(#linear5)" d="M 118.433594 190.320312 L 118.433594 257.132812 L 203.15625 257.132812 L 203.15625 190.320312 Z M 118.433594 190.320312"/></g></g><path style="stroke:none;fill-rule:nonzero;fill:#f16c52;fill-opacity:1" d="M 124.027344 298.164062 L 116.519531 298.164062 C 115.226562 298.160156 113.9375 298.128906 112.644531 298.0625 C 111.355469 298 110.070312 297.902344 108.785156 297.773438 C 107.5 297.644531 106.214844 297.484375 104.9375 297.296875 C 103.660156 297.105469 102.390625 296.882812 101.125 296.628906 C 99.855469 296.375 98.597656 296.089844 97.34375 295.777344 C 96.09375 295.460938 94.847656 295.113281 93.613281 294.738281 C 92.375 294.363281 91.152344 293.957031 89.933594 293.519531 C 88.71875 293.082031 87.515625 292.617188 86.320312 292.121094 C 85.128906 291.628906 83.949219 291.101562 82.78125 290.550781 C 81.613281 289.996094 80.460938 289.414062 79.324219 288.804688 C 78.183594 288.195312 77.0625 287.558594 75.953125 286.894531 C 74.847656 286.230469 73.757812 285.539062 72.683594 284.820312 C 71.609375 284.101562 70.554688 283.355469 69.519531 282.585938 C 68.480469 281.816406 67.464844 281.023438 66.464844 280.203125 C 65.46875 279.382812 64.492188 278.539062 63.535156 277.671875 C 62.578125 276.804688 61.644531 275.914062 60.730469 275 C 59.816406 274.085938 58.929688 273.148438 58.0625 272.191406 C 57.195312 271.234375 56.351562 270.257812 55.53125 269.257812 C 54.714844 268.261719 53.921875 267.242188 53.152344 266.207031 C 52.382812 265.167969 51.640625 264.113281 50.921875 263.039062 C 50.207031 261.964844 49.515625 260.875 48.851562 259.765625 C 48.1875 258.65625 47.550781 257.535156 46.945312 256.394531 C 46.335938 255.257812 45.753906 254.101562 45.203125 252.9375 C 44.652344 251.769531 44.128906 250.589844 43.636719 249.394531 C 43.140625 248.203125 42.675781 246.996094 42.242188 245.78125 C 41.808594 244.566406 41.402344 243.339844 41.027344 242.105469 C 40.652344 240.871094 40.308594 239.625 39.996094 238.371094 C 39.683594 237.121094 39.398438 235.859375 39.148438 234.59375 C 38.894531 233.328125 38.675781 232.054688 38.484375 230.777344 C 38.296875 229.503906 38.136719 228.222656 38.011719 226.9375 C 37.886719 225.652344 37.789062 224.363281 37.726562 223.074219 C 37.664062 221.785156 37.632812 220.496094 37.632812 219.203125 L 37.632812 134.089844 C 55.722656 134.089844 78.234375 149.117188 94.46875 168.488281 C 97.6875 172.308594 100.929688 176.414062 103.917969 180.613281 C 109.3125 188.421875 114.179688 196.546875 118.523438 204.984375 C 120.464844 208.871094 122.207031 212.835938 123.929688 216.804688 C 141.8125 257.488281 145.34375 298.164062 124.027344 298.164062 Z M 124.027344 298.164062"/><g clip-path="url(#clip13)" clip-rule="nonzero"><g clip-path="url(#clip14)" clip-rule="nonzero"><path style="stroke:none;fill-rule:nonzero;fill:url(#linear6)" d="M 37.628906 148.449219 L 37.628906 277.035156 L 113.640625 277.035156 L 113.640625 148.449219 Z M 37.628906 148.449219"/></g></g><path style="stroke:none;fill-rule:nonzero;fill:#e04e3b;fill-opacity:1" d="M 38.292969 135.078125 L 37.46875 135.078125 C 37.039062 135.082031 36.617188 135.042969 36.199219 134.960938 C 35.78125 134.878906 35.375 134.757812 34.980469 134.59375 C 34.589844 134.433594 34.214844 134.234375 33.859375 134 C 33.503906 133.761719 33.175781 133.496094 32.871094 133.195312 C 32.570312 132.894531 32.300781 132.566406 32.0625 132.214844 C 31.828125 131.859375 31.625 131.488281 31.460938 131.09375 C 31.296875 130.703125 31.175781 130.296875 31.089844 129.878906 C 31.007812 129.460938 30.964844 129.039062 30.964844 128.613281 C 30.964844 122.941406 32.136719 115.566406 38.152344 115.566406 C 55.101562 115.566406 80.949219 154.667969 80.949219 154.667969 C 80.949219 154.667969 58.253906 135.078125 38.292969 135.078125 Z M 38.292969 135.078125"/><path style="stroke:none;fill-rule:nonzero;fill:#e04e3b;fill-opacity:1" d="M 121.3125 237.875 C 121.3125 237.367188 121.214844 236.878906 121.023438 236.40625 C 120.828125 235.9375 120.550781 235.523438 120.191406 235.164062 C 119.828125 234.804688 119.414062 234.527344 118.945312 234.332031 C 118.476562 234.136719 117.984375 234.039062 117.476562 234.039062 C 116.96875 234.039062 116.476562 234.136719 116.007812 234.332031 C 115.539062 234.527344 115.121094 234.804688 114.761719 235.164062 C 114.402344 235.523438 114.125 235.9375 113.929688 236.40625 C 113.734375 236.878906 113.640625 237.367188 113.640625 237.875 C 113.640625 238.382812 113.734375 238.875 113.929688 239.34375 C 114.125 239.8125 114.402344 240.226562 114.761719 240.585938 C 115.121094 240.945312 115.539062 241.222656 116.007812 241.417969 C 116.476562 241.613281 116.96875 241.710938 117.476562 241.710938 C 117.984375 241.710938 118.476562 241.613281 118.945312 241.417969 C 119.414062 241.222656 119.828125 240.945312 120.191406 240.585938 C 120.550781 240.226562 120.828125 239.8125 121.023438 239.34375 C 121.214844 238.875 121.3125 238.382812 121.3125 237.875 Z M 121.3125 237.875"/><path style="stroke:none;fill-rule:nonzero;fill:#e04e3b;fill-opacity:1" d="M 125.191406 258.980469 C 125.1875 258.472656 125.085938 257.988281 124.890625 257.519531 C 124.691406 257.054688 124.414062 256.644531 124.054688 256.289062 C 123.695312 255.929688 123.277344 255.65625 122.808594 255.464844 C 122.339844 255.273438 121.855469 255.175781 121.347656 255.179688 C 120.839844 255.179688 120.351562 255.277344 119.882812 255.472656 C 119.417969 255.664062 119.003906 255.941406 118.644531 256.300781 C 118.285156 256.65625 118.007812 257.070312 117.8125 257.535156 C 117.617188 258.003906 117.519531 258.492188 117.519531 258.996094 C 117.515625 259.503906 117.609375 259.992188 117.800781 260.460938 C 117.992188 260.929688 118.265625 261.34375 118.621094 261.703125 C 118.976562 262.066406 119.386719 262.34375 119.855469 262.542969 C 120.320312 262.742188 120.808594 262.84375 121.3125 262.847656 C 121.570312 262.851562 121.820312 262.828125 122.074219 262.78125 C 122.324219 262.734375 122.566406 262.660156 122.800781 262.566406 C 123.039062 262.46875 123.261719 262.351562 123.476562 262.210938 C 123.6875 262.070312 123.886719 261.910156 124.066406 261.726562 C 124.246094 261.546875 124.40625 261.351562 124.550781 261.140625 C 124.691406 260.925781 124.808594 260.703125 124.90625 260.46875 C 125.003906 260.230469 125.074219 259.988281 125.125 259.738281 C 125.171875 259.488281 125.195312 259.234375 125.191406 258.980469 Z M 125.191406 258.980469"/><path style="stroke:none;fill-rule:nonzero;fill:#e04e3b;fill-opacity:1" d="M 125.191406 280.085938 C 125.191406 279.578125 125.09375 279.085938 124.902344 278.617188 C 124.707031 278.148438 124.429688 277.734375 124.070312 277.375 C 123.707031 277.015625 123.292969 276.738281 122.824219 276.542969 C 122.351562 276.347656 121.863281 276.25 121.355469 276.25 C 120.847656 276.25 120.355469 276.347656 119.886719 276.542969 C 119.417969 276.738281 119 277.015625 118.640625 277.375 C 118.28125 277.734375 118.003906 278.148438 117.808594 278.617188 C 117.613281 279.085938 117.519531 279.578125 117.519531 280.085938 C 117.519531 280.59375 117.613281 281.082031 117.808594 281.554688 C 118.003906 282.023438 118.28125 282.4375 118.640625 282.796875 C 119 283.15625 119.417969 283.433594 119.886719 283.628906 C 120.355469 283.824219 120.847656 283.921875 121.355469 283.921875 C 121.863281 283.921875 122.355469 283.824219 122.824219 283.628906 C 123.296875 283.4375 123.710938 283.160156 124.070312 282.800781 C 124.429688 282.441406 124.707031 282.023438 124.902344 281.554688 C 125.097656 281.085938 125.195312 280.59375 125.191406 280.085938 Z M 125.191406 280.085938"/><path style="stroke:none;fill-rule:nonzero;fill:#f9aa8f;fill-opacity:1" d="M 160.324219 136.605469 C 160.324219 136.605469 158.0625 126.4375 163.714844 120.21875 L 163.714844 124.175781 C 163.714844 124.175781 167.015625 125.503906 170.597656 119.367188 C 175.121094 111.558594 181.246094 117 179.402344 124.738281 C 178.4375 128.8125 174.269531 139.714844 162.585938 146.875"/><path style="stroke:none;fill-rule:nonzero;fill:#f16c52;fill-opacity:1" d="M 166.011719 139.3125 L 165.308594 138.148438 C 165.117188 137.832031 164.902344 137.539062 164.65625 137.265625 C 164.410156 136.992188 164.140625 136.742188 163.851562 136.519531 C 163.558594 136.296875 163.246094 136.101562 162.917969 135.9375 C 162.589844 135.769531 162.25 135.636719 161.894531 135.535156 C 161.542969 135.433594 161.183594 135.367188 160.816406 135.335938 C 160.449219 135.300781 160.082031 135.300781 159.71875 135.335938 C 159.351562 135.371094 158.992188 135.441406 158.640625 135.542969 C 158.285156 135.644531 157.945312 135.78125 157.617188 135.945312 C 146.210938 141.71875 117.484375 155.804688 101.574219 159.683594 C 100.078125 160.042969 98.5625 160.242188 97.023438 160.285156 C 95.484375 160.324219 93.957031 160.199219 92.445312 159.917969 C 90.933594 159.632812 89.46875 159.191406 88.050781 158.597656 C 86.628906 158 85.289062 157.261719 84.027344 156.382812 C 83.210938 155.816406 82.363281 155.296875 81.484375 154.828125 C 80.605469 154.359375 79.703125 153.941406 78.777344 153.578125 C 77.851562 153.214844 76.90625 152.90625 75.945312 152.652344 C 74.980469 152.402344 74.007812 152.203125 73.019531 152.066406 C 72.035156 151.925781 71.046875 151.84375 70.050781 151.820312 C 69.054688 151.792969 68.0625 151.828125 67.070312 151.921875 C 66.078125 152.011719 65.097656 152.160156 64.121094 152.367188 C 63.148438 152.574219 62.191406 152.835938 61.246094 153.152344 C 60.304688 153.472656 59.382812 153.84375 58.480469 154.269531 C 57.582031 154.695312 56.710938 155.171875 55.867188 155.699219 C 55.023438 156.226562 54.210938 156.800781 53.433594 157.425781 C 52.65625 158.046875 51.917969 158.710938 51.21875 159.417969 C 50.519531 160.128906 49.867188 160.875 49.253906 161.660156 C 48.640625 162.441406 48.078125 163.261719 47.558594 164.109375 C 47.042969 164.960938 46.578125 165.839844 46.164062 166.742188 C 45.75 167.648438 45.390625 168.574219 45.085938 169.519531 C 44.835938 170.277344 44.625 171.042969 44.453125 171.820312 C 44.277344 172.59375 44.136719 173.378906 44.035156 174.167969 C 43.933594 174.957031 43.871094 175.746094 43.84375 176.542969 C 43.816406 177.339844 43.828125 178.132812 43.875 178.925781 C 43.921875 179.71875 44.003906 180.511719 44.125 181.296875 C 44.246094 182.082031 44.40625 182.863281 44.597656 183.632812 C 44.792969 184.40625 45.023438 185.164062 45.289062 185.914062 C 45.554688 186.664062 45.855469 187.402344 46.191406 188.121094 C 46.523438 188.84375 46.890625 189.550781 47.292969 190.238281 C 47.695312 190.925781 48.125 191.589844 48.589844 192.238281 C 49.050781 192.886719 49.542969 193.507812 50.066406 194.109375 C 50.585938 194.710938 51.136719 195.285156 51.710938 195.835938 C 52.289062 196.382812 52.886719 196.90625 53.511719 197.398438 C 54.136719 197.890625 54.785156 198.355469 55.449219 198.789062 C 56.117188 199.21875 56.804688 199.621094 57.511719 199.988281 C 58.21875 200.359375 58.9375 200.691406 59.675781 200.992188 C 72.457031 206.132812 90.324219 208.746094 110.996094 198.957031 C 123.648438 192.976562 137.265625 182.460938 151.484375 164.933594 L 165.6875 145.851562 C 166.035156 145.382812 166.308594 144.875 166.503906 144.324219 C 166.703125 143.777344 166.8125 143.210938 166.84375 142.628906 C 166.871094 142.046875 166.816406 141.472656 166.671875 140.910156 C 166.53125 140.34375 166.308594 139.808594 166.011719 139.3125 Z M 166.011719 139.3125"/><path style="stroke:none;fill-rule:nonzero;fill:#071c2a;fill-opacity:1" d="M 86.941406 71.351562 C 87.460938 70.726562 86.941406 71.351562 87.503906 70.757812 C 90.128906 68.011719 97.40625 59.007812 92.222656 48.621094 C 87.164062 38.5625 71.070312 37.734375 69.667969 46.148438 C 68.265625 54.558594 65.417969 55.75 57.777344 57.816406 C 50.136719 59.886719 37.632812 65.902344 37.632812 81.101562 L 37.632812 90.527344 C 37.625 90.925781 37.742188 91.277344 37.988281 91.589844 C 38.238281 91.898438 38.554688 92.09375 38.945312 92.175781 C 39.933594 92.332031 41.113281 91.46875 41.113281 86.335938 C 41.113281 86.335938 38.640625 73.019531 51.019531 81.199219 C 59.246094 86.632812 80.667969 78.792969 86.941406 71.351562 Z M 86.941406 71.351562"/><path style="stroke:none;fill-rule:nonzero;fill:#f9aa8f;fill-opacity:1" d="M 55.722656 46.148438 C 55.722656 46.148438 37.804688 44.789062 35.667969 55.691406 C 34.40625 62.113281 39.605469 68.0625 46.164062 68.0625 L 47.816406 68.0625 C 48.335938 68.0625 48.847656 68.011719 49.359375 67.910156 C 49.867188 67.808594 50.363281 67.660156 50.839844 67.460938 C 51.320312 67.261719 51.777344 67.019531 52.207031 66.730469 C 52.640625 66.441406 53.039062 66.113281 53.40625 65.746094 C 53.773438 65.378906 54.101562 64.980469 54.390625 64.550781 C 54.679688 64.117188 54.921875 63.664062 55.121094 63.183594 C 55.320312 62.703125 55.46875 62.210938 55.570312 61.703125 C 55.671875 61.191406 55.722656 60.679688 55.722656 60.160156 Z M 55.722656 46.148438"/><path style="stroke:none;fill-rule:nonzero;fill:#071c2a;fill-opacity:1" d="M 304.078125 160.878906 L 335.164062 173.019531 L 344.464844 161.972656 L 336.171875 188.339844 L 300.578125 181.304688"/><path style="stroke:none;fill-rule:nonzero;fill:#fff;fill-opacity:1" d="M 84.695312 149.25 C 84.695312 149.402344 84.667969 149.550781 84.609375 149.691406 C 84.550781 149.832031 84.464844 149.957031 84.359375 150.066406 C 84.25 150.171875 84.125 150.257812 83.984375 150.316406 C 83.84375 150.375 83.695312 150.402344 83.542969 150.402344 C 83.386719 150.402344 83.242188 150.375 83.097656 150.316406 C 82.957031 150.257812 82.832031 150.171875 82.722656 150.066406 C 82.617188 149.957031 82.53125 149.832031 82.472656 149.691406 C 82.414062 149.550781 82.386719 149.402344 82.386719 149.25 C 82.386719 149.097656 82.414062 148.949219 82.472656 148.808594 C 82.53125 148.664062 82.617188 148.539062 82.722656 148.433594 C 82.832031 148.324219 82.957031 148.242188 83.097656 148.183594 C 83.242188 148.125 83.386719 148.09375 83.542969 148.09375 C 83.695312 148.09375 83.84375 148.125 83.984375 148.183594 C 84.125 148.242188 84.25 148.324219 84.359375 148.433594 C 84.464844 148.539062 84.550781 148.664062 84.609375 148.808594 C 84.667969 148.949219 84.695312 149.097656 84.695312 149.25 Z M 84.695312 149.25"/><path style="stroke:none;fill-rule:nonzero;fill:#fff;fill-opacity:1" d="M 95.085938 155.015625 C 95.101562 155.175781 95.082031 155.332031 95.027344 155.484375 C 94.976562 155.636719 94.894531 155.773438 94.785156 155.890625 C 94.675781 156.011719 94.546875 156.101562 94.398438 156.167969 C 94.253906 156.234375 94.097656 156.265625 93.9375 156.265625 C 93.773438 156.265625 93.617188 156.234375 93.472656 156.167969 C 93.324219 156.101562 93.195312 156.011719 93.085938 155.890625 C 92.976562 155.773438 92.894531 155.636719 92.84375 155.484375 C 92.789062 155.332031 92.769531 155.175781 92.785156 155.015625 C 92.808594 154.714844 92.933594 154.464844 93.152344 154.261719 C 93.375 154.058594 93.636719 153.957031 93.9375 153.957031 C 94.234375 153.957031 94.496094 154.058594 94.71875 154.261719 C 94.9375 154.464844 95.0625 154.714844 95.085938 155.015625 Z M 95.085938 155.015625"/><path style="stroke:none;fill-rule:nonzero;fill:#fff;fill-opacity:1" d="M 135.03125 194.363281 C 135.03125 194.515625 135 194.664062 134.941406 194.804688 C 134.882812 194.945312 134.800781 195.070312 134.691406 195.179688 C 134.582031 195.285156 134.457031 195.371094 134.316406 195.429688 C 134.175781 195.488281 134.027344 195.515625 133.875 195.515625 C 133.722656 195.515625 133.574219 195.488281 133.433594 195.429688 C 133.289062 195.371094 133.164062 195.285156 133.058594 195.179688 C 132.949219 195.070312 132.867188 194.945312 132.808594 194.804688 C 132.75 194.664062 132.71875 194.515625 132.71875 194.363281 C 132.71875 194.210938 132.75 194.0625 132.808594 193.921875 C 132.867188 193.777344 132.949219 193.652344 133.058594 193.546875 C 133.164062 193.4375 133.289062 193.355469 133.433594 193.296875 C 133.574219 193.238281 133.722656 193.207031 133.875 193.207031 C 134.027344 193.207031 134.175781 193.238281 134.316406 193.296875 C 134.457031 193.355469 134.582031 193.4375 134.691406 193.546875 C 134.800781 193.652344 134.882812 193.777344 134.941406 193.921875 C 135 194.0625 135.03125 194.210938 135.03125 194.363281 Z M 135.03125 194.363281"/><path style="stroke:none;fill-rule:nonzero;fill:#fff;fill-opacity:1" d="M 142.175781 203.410156 C 142.175781 203.5625 142.148438 203.710938 142.089844 203.851562 C 142.03125 203.992188 141.945312 204.117188 141.839844 204.226562 C 141.730469 204.335938 141.605469 204.417969 141.464844 204.476562 C 141.320312 204.535156 141.175781 204.5625 141.019531 204.5625 C 140.867188 204.5625 140.71875 204.535156 140.578125 204.476562 C 140.4375 204.417969 140.3125 204.335938 140.203125 204.226562 C 140.097656 204.117188 140.011719 203.992188 139.953125 203.851562 C 139.894531 203.710938 139.867188 203.5625 139.867188 203.410156 C 139.867188 203.257812 139.894531 203.109375 139.953125 202.96875 C 140.011719 202.824219 140.097656 202.703125 140.203125 202.59375 C 140.3125 202.484375 140.4375 202.402344 140.578125 202.34375 C 140.71875 202.285156 140.867188 202.253906 141.019531 202.253906 C 141.175781 202.253906 141.320312 202.285156 141.464844 202.34375 C 141.605469 202.402344 141.730469 202.484375 141.839844 202.59375 C 141.945312 202.703125 142.03125 202.824219 142.089844 202.96875 C 142.148438 203.109375 142.175781 203.257812 142.175781 203.410156 Z M 142.175781 203.410156"/><g clip-path="url(#clip15)" clip-rule="nonzero"><path style="stroke:none;fill-rule:nonzero;fill:url(#linear7)" d="M 322.519531 203.410156 L 322.519531 277.042969 L 374.984375 277.042969 L 374.984375 203.410156 Z M 322.519531 203.410156"/></g><g clip-path="url(#clip16)" clip-rule="nonzero"><g clip-path="url(#clip17)" clip-rule="nonzero"><path style="stroke:none;fill-rule:nonzero;fill:url(#linear8)" d="M 322.519531 277.035156 L 322.519531 328.828125 L 344.464844 328.828125 L 344.464844 277.035156 Z M 322.519531 277.035156"/></g></g><g clip-path="url(#clip18)" clip-rule="nonzero"><g clip-path="url(#clip19)" clip-rule="nonzero"><path style="stroke:none;fill-rule:nonzero;fill:url(#linear9)" d="M 333.488281 214.890625 L 333.488281 232.710938 L 374.976562 232.710938 L 374.976562 214.890625 Z M 333.488281 214.890625"/></g></g><g clip-path="url(#clip20)" clip-rule="nonzero"><g clip-path="url(#clip21)" clip-rule="nonzero"><path style="stroke:none;fill-rule:nonzero;fill:url(#linear10)" d="M 333.488281 241.5625 L 333.488281 259.382812 L 374.976562 259.382812 L 374.976562 241.5625 Z M 333.488281 241.5625"/></g></g></g></svg>